<svg id="Layer_1" data-name="Layer 1" xmlns="http://www.w3.org/2000/svg" viewBox="0 0 589 593"><defs><style>.cls-1{fill:#fff;fill-rule:evenodd;}</style></defs><title>Artboard 2</title><path class="cls-1" d="M276,83.59c-5,4.94-.58,13.07,2.44,16.09,3.9,3.91,11.17,6.62,18,5.85,6.62-.74,13.46-5.58,21-3.9,13.07,5.88,1.61,29.26-8.29,32.18-6.09,1.8-17,1.05-23.41-.49-3.54-.85-5.77-3.18-8.78-3.41-5.37-.42-9.27,2-9.75,4.88-1.33,7.91,9.16,9.89,19.5,8.78,7.21-.78,15.87-4.24,20,1.46,4.53,6.27-2.76,12.59,1,20,5.45,1.36,6.4-5.36,7.8-8.78,4.65-11.29,7.58-27.81,18-33.65,12.11-.48,21.57,2.81,22.92,12.19,1,6.76-3,10.43-3.9,17.07-1.69,12.3,7.23,23,4.88,35.6-2.07,11.05-13.89,18.57-27.31,14.14-6.09-2-9.27-7.65-19.5-6.34-10.62,1.36-13.93,10-27.31,8.29-12.53-1.6-14.71-16-32.18-13.17-3.22.52-6.52,2.76-9.75,4.39-6.54,3.29-24.92,11.47-33.16,5.36-3.12-2.31-4.57-8.87-3.9-17.07,1.3-15.9,14.34-27.81,12.19-45.84-.9-7.53-5.39-13.85-2.93-22.92.83-3,3.55-6.63,5.36-9.27,6.32-9.18,18.22-18.14,20.48-29.75,2.5-12.88-2.26-24.77.49-36.08,2.24-9.25,11.9-17.52,22.92-18.53,14.46-1.32,19.57,10,30.23,10.73s20.33-7.84,31.21-7.32c4.82.23,10.91,2.63,13.17,7.32,1.76,3.67-.28,15.57,1.46,22.92,2.25,9.51,13.49,18.67,11.22,34.62-.74,5.21-5.81,15.41-11.22,15.6-4.24.15-7.86-6.8-11.7-9.26a19.46,19.46,0,0,0-8.78-3.41c-9.61-.7-15.81,7.07-25.36,3.41C286.23,92.67,285.83,85,276,83.59Z"/><path class="cls-1" d="M160.93,128.45c.72,16.59,20,10,29.75,18,6.56,5.4,7.71,19.45,6.34,29.74-1.5,11.3-6.7,19.62-13.17,24.87-10,1-16.86,4-24.87,8.29-4.23,2.26-10.17,8-15.12,7.8-4.61-.15-7.69-5.55-13.17-6.34-5.12-.74-10.74,2.68-17.56,2-6.49-.69-12.59-6-10.73-14.14,1.21-5.24,8.08-7.66,13.17-9.75,3-1.24,14.36-4.48,14.14-8.29-.17-3.09-6.25-4.08-7.8-4.88-2.49-1.27-6-3.94-6.83-5.36-3.67-6.13.38-24.43-8.78-24.38-7.78,0-7,14.17-4.39,21.94,1.56,4.64,5.08,7.84,4.39,13.17-.91,7.07-11,9.08-12.19,15.12-1.55,7.86,4.57,12.13,2.93,18-1.2,4.34-10.91,6.23-16.09,7.8-12,3.65-24,7.38-34.62,13.17-5.11,2.79-11.32,9.16-18,5.85-8-3.92-5.38-23.29-2.93-32.18,3.34-12.12,9.28-22,15.12-30.23,6.12-8.62,15.59-14,21.94-22.92,5.06-7.1,6.8-14.61,10.24-22.43,3.36-7.64,7.91-14.44,13.65-19,5.95-4.74,15.68-7.39,22.43-11.7C113.6,99.51,121,89,120.46,80.17c-.26-4.31-4.48-6.75-2.44-11.7,2.42-5.89,10.1-2.46,16.58-3.41s12.87-6.62,21-9.75c7.51-2.9,16.2-4.63,22.92-7.31,10.34-4.14,20.45-17,33.16-12.19,10.92,4.15,20.7,24.44,14.63,40.47-4.37,11.54-19.52,16.79-21,29.75-.83,7.43,1.6,15.44-2,21.45-2.67,4.52-6.9,6.49-11.22,9.27C175.47,141.71,172.29,122.29,160.93,128.45Zm16.58-43.89c.87-4.66,10.84-5.06,9.75-10.24-.31-1.46-3-3.64-4.88-2.44-4.78,3-13.53,11.5-23.41,11.22-.8,1.42-1.46,3.53-.49,5.36,2.87,2.12,5.63-.1,8.29.49,5.25,1.17,5.91,7.81,10.73,9.27C185.49,94.74,176.46,90.21,177.51,84.56Z"/><path class="cls-1" d="M408.65,90.41c-3,14.88,12.39,12.22,20,18,9.48,7.27,8.21,24.69,27.79,23.41,10.27-.67,19.1-6.74,32.67-5.36,12.9,1.31,24.44,8.66,29.74,19,3.91,7.63,4.61,19.24,8.78,26.82,5.1,9.26,14.62,13.38,18,21,7.15,15.83-4.24,32.45-17.07,35.6-6.1,1.5-15.64.92-20.48,0-11.73-2.24-19.06-11.73-31.21-13.17-11.37-1.34-20,4.17-31.21,2-8.49-1.67-15.54-9.31-25.36-10.73-8.91-1.28-17.78,1.62-25.84,1-9.88-.79-23.62-5.43-26.33-13.65-1.87-5.66.72-15.38.49-20-.58-11.54-6.64-20-1-28.77,8.1-12.52,30.9-2.52,39.5,3.41A134.76,134.76,0,0,1,424.74,164c5.85,5.86,10.27,12.54,16.58,15.6,7.37,3.58,34.1,9.59,35.11-1.46,1.08-11.75-25.94-10.13-34.62-13.65-4.57-1.85-9.9-6.08-12.68-8.78-4.82-4.67-5.91-10.93-13.65-16.09-5.3-3.54-14.43-6.58-22.43-8.78-14.68-4-39-5.21-41-21-1.56-12.72,8.9-18.13,10.24-29.26,1.66-13.75-10.58-22.84-2.93-36.57,2.91-5.22,11.54-9.37,21.94-8.29,19.89,2.07,26.52,16.82,39.5,26.82C424,65.05,429,68.52,433,69.93c7.08,2.45,17.34.85,23.89,2.93,9.13,2.89,19.37,16.24,22.92,26.33,6.41,18.22-13,28.13-28.28,20-7.83-4.18-10.24-14-16.58-19-3-2.36-8-4.54-12.19-6.34C418.89,92.14,413.84,89.86,408.65,90.41Z"/><path class="cls-1" d="M254.56,199.64c6-.95,9.17,2.56,15.12,6.83,6.69,4.81,12.35,8.58,12.68,18.53.27,8.21-6.7,21.48-7.8,30.72a41.25,41.25,0,0,0,17.55,39.5c.56.37,20.8,10.8,22.43,2,1.15-6.23-11.62-11.05-14.63-13.65-8.82-7.62-13.45-15.56-12.19-33.16A79.56,79.56,0,0,1,293.57,226c2.56-6,7.21-15.3,13.17-17.07,10.78-3.21,21.92,3.78,30.72,2.92,5.46-.53,8.11-4.18,13.17-4.39,12.48-.51,22.46,10.29,26.82,19a62.62,62.62,0,0,1,5.85,30.72c-1.24,16.33-9.18,29.84-14.63,43.4-3.48,8.65-7.41,16-4.87,29.26.94,4.92,3.74,10.7,5.36,17.07,3.29,12.89,9.18,39-5.36,44.37-11.77,4.35-22.69-4.71-35.11-2-9.13,2-18,13.47-30.23,6.83-11.46-6.21-2.36-33.39-9.27-45.84-2.49-4.49-7.22-8.5-11.7-13.16a148.43,148.43,0,0,0-12.68-11.7c-6.62-5.28-7.07-5.27-14.63-10.24-1.1-.72-13.78-10.12-16.09-2.44-1.71,5.7,6.79,10.68,10.24,13.16,11.24,8.1,17.4,10.68,25.36,22.43,4.84,7.14,11.66,19.44,9.26,34.14-1.23,7.51-6.35,15.21-14.63,16.09-5.81.62-12-1.29-16.09-2.93-7-2.83-12.43-8.52-19-9.75-13.36-2.5-22.21,6.58-33.16,3.9-6.14-1.5-11.63-8.67-12.19-16.09-.46-6.09,3.35-14.42,3.9-20.48,1.72-18.91-10.12-32.5-6.83-50.71,1.12-6.23,5-13.36,7.8-18.53,5.76-10.56,12.85-17.33,11.22-36.08-1.24-14.16-10.71-28,1-33.65,6.94-3.38,22.33,0,30.72-2.44C241.72,208.88,245.08,201.14,254.56,199.64Z"/><path class="cls-1" d="M169.22,217.68c21.48-2.35,23.79,31.07,17.07,49.25-6.67,18-23.46,28.45-20.48,56.08,1.2,11.1,9.92,23.11,7.8,39.5-.89,6.89-4.6,16.16-12.19,17.56-6.63,1.22-13.29-3.08-18.53-4.88-9.3-3.18-18.57-5.58-31.21-3.9-10.85,1.44-22.21,9.4-34.62,6.83-4.75-1-8.22-4.63-13.17-6.34-8.9-3.08-21.35-2.35-27.8-7.8-7-5.92-11.58-19.54-8.78-31.7,2-8.76,8.2-16.6,7.31-24.87-1.05-9.86-13.49-13.32-11.22-29.26,2-14.22,15.11-25.33,25.36-32.67,4.08-2.93,8.82-6.28,13.17-8.29,10.39-4.8,22-6.39,32.67-10.24,8.41-3,14.88-9.54,27.79-7.8a33.14,33.14,0,0,1,6.34,2c5,2,6.63,8.71,13.17,9.26C151.92,231.21,156.26,219.1,169.22,217.68Zm-46.81,60.47c-9.88,8.28-26.76,11.64-35.11,23.89a42.26,42.26,0,0,0-6.83,18c-.58,5.69-1.95,27.16,8.29,23.9,5.49-1.75,2.34-13.83,2.44-18.53.3-14.33,7.4-21.72,17.07-27.31,3.64-2.1,8.4-2.92,12.68-5.36,7.17-4.09,15.19-12.42,16.09-19.51s-2-12.62-6.34-9.27C126.92,270.73,126.93,274.36,122.41,278.15Z"/><path class="cls-1" d="M403.28,217.68c15-3.4,22.53,9.9,32.19,13.17,14.81,5,30.3-4.18,43.89-2.44,10.64,1.36,13.68,10.42,22.92,12.68,14,3.41,22.93-8.9,37.55-3.41,8.41,3.16,15.33,16,16.58,27.79,1,9.81-.36,20.56,1.46,31.21,1.61,9.38,5.1,18.12,6.83,25.84,9.63,43-33.24,39.39-60,51.2-4.49,2-10.93,4.94-15.12,3.41-4.8-1.74-6.34-10.32-7.32-14.63C481,356.94,478,349.76,478.87,344c.95-6.53,12.33-11.64,11.7-19-.54-6.3-13-10.5-22.92-8.78-3.76.66-13.41,6.5-14.14,12.68-1.42,12.12,13.72,21.28,17.55,27.79,1.66,2.82,5.13,10.46,3.9,15.61-1.89,7.91-19,14.65-29.26,15.12-11.19.51-25.42-2.7-35.6-2-7.52.55-19.75,6.71-25.84,2.93s-2.19-18.15-3.42-28.77c-1.33-11.6-5.62-21-5.36-35.6.48-26.93,23-38.18,20.48-66.8-.88-10.08-6.9-20.34-2.93-30.72C393.76,224.6,397.67,219,403.28,217.68Zm80,76.07c6.35,1,9.37,7.36,15.12,6.83,7.39-.68,1.27-11.89-2-14.63-2.65-2.26-6.88-3.05-11.22-6.34-6.28-4.76-6.87-12.47-12.19-14.14-5.88-1.85-11.89.95-12.19,5.85-.36,5.83,4.39,8.54,5.85,12.19,1.76,4.39,1,8.12,4.88,11.21C476.91,295.21,479.25,293.15,483.26,293.75Z"/><path class="cls-1" d="M471.55,294.73c-3.92-3.09-3.12-6.83-4.88-11.21-1.46-3.65-6.21-6.37-5.85-12.19.3-4.91,6.31-7.7,12.19-5.85,5.32,1.67,5.91,9.39,12.19,14.14,4.34,3.29,8.56,4.08,11.22,6.34,3.22,2.74,9.34,13.94,2,14.63-5.75.53-8.76-5.87-15.12-6.83C479.25,293.15,476.91,295.21,471.55,294.73Z"/><path class="cls-1" d="M138,423.95c2.22,22.31,29.77,18.36,36.08,36.57,3.38,9.76-2,19.49-2.93,27.31a38.16,38.16,0,0,0,2.44,19c3.74,9.16,16.63,16.31,18.53,28.28.75,4.74-.45,10.58-2.44,12.19-7.61,6.17-22.42-2-26.82-4.88-2-1.34-4.79-2.62-6.34-3.9-9.4-7.8-16.21-23.07-27.8-26.82-7-2.27-16-1.33-21.46-4.88-9.15-5.92-12.42-24.77-6.34-36.57,1.28-2.48,4.73-6.37,7.31-8.78,2.06-1.91,6.65-4.56,5.85-10.24-1-7.19-10-6.37-13.65-13.16-2.08-3.91-1.26-13.61-5.85-14.63-8.5-1.88-8.57,9.2-7.31,16.09s4.2,9.9,3.41,15.12c-2.16,14.28-19,10.07-25.84.49-4.28-6-4.42-14-6.83-21-5.14-14.86-20.25-18.91-22.43-37.06-1.16-9.63,3.41-17,10.73-18.53,12-2.48,21.7,7,30.72,9.26,18,4.46,35.65-6.76,51.69-4.88,8.52,1,14.48,8.08,21.94,8.78,5.94.56,10.06-2.89,16.09-3.41,8.71-.76,19.56,3.39,21.94,10.24,1.67,4.78-.45,13.64.49,20,2.09,14.09,18.17,20.47,16.09,43.4-.7,7.71-3.61,18-11.22,18.53-9.14.64-10.17-9.07-12.19-17.07-2.71-10.75-10.75-24.77-19.51-32.67C157.21,426.09,148.61,418.82,138,423.95Z"/><path class="cls-1" d="M497.4,473.69c-2.17,9.8-8.49,14.46-17.55,18-8,3.14-19.12,5.48-23.89,11.7-5,6.46-4.79,19.45-11.7,22.43-11.94,5.15-23.73-5.52-24.38-13.16-.33-3.92,2.17-9.07,3.9-12.19,2.09-3.77,7.76-11.08,11.22-16.58,2.51-4,9.45-17.46,1-19-6.39-1.17-7.9,6.82-9.75,12.68-3,9.5-6.66,14.94-13.17,21.94-2.69,2.9-4.9,3.91-5.36,7.8-.61,5.19,2.25,9.92,4.88,13.17s7.93,5.17,8.29,9.75c.57,7.18-9.38,11.16-16.09,14.63-7.31,3.77-14.68,8.17-21.46,8.78-18.85,1.68-21.35-12-20-29.75.67-8.86,3.69-17.44,4.39-24.38.81-8.12-1.58-17.85-1-23.41,1-9.16,6.73-14.45,9.75-21.94s6-17.46,5.36-27.79c-.38-5.75-5-11.92-3.9-18.53,1.67-9.64,16.42-9.75,32.18-9.75,13.71,0,29.4,2.63,41,0,9.9-2.25,18.54-10.27,28.77-11.22,5.06-.46,8.74,1.72,13.17,1.46,11-.63,21-12.28,35.11-6.83,8.82,3.41,12.47,13.9,9.26,22.92-2.41,6.8-10.33,11.08-12.68,16.09-1.56,3.34-1.9,8.89-3.9,12.19S509,444.21,504.71,446.38c-8,4-23,4.75-23.89,12.19C479.65,468.83,493.43,466.52,497.4,473.69Zm-28.28-55.1c-9.68,1.49-33.67-9.47-30.23,5.85,1.27,5.65,17.26,1.4,22.43,2.44,2.37.48,5,2.72,7.31,4.39,1,.73,4.33,5,7.32,4.39,4-.84,6-14.8,4.39-19C475.83,414.72,472.77,418,469.11,418.59Z"/><path class="cls-1" d="M218,399.08c8.49-1.49,21.21,3.58,28.77,6.34,13.21,4.82,27.6,12.5,46.32,9.27,12.84-2.22,22.68-11.74,35.11-13.17,23.46-2.69,42.62,17,37.06,41.94-1.59,7.13-9.33,14.19-11.21,22.43-2.57,11.25,2.6,20,1.46,32.67-.3,3.36-2.05,7.1-2.44,10.73-1.38,13,3.66,25.72,1.46,35.6-1.78,8-10.23,16.06-17.07,20-12.29,7.07-39.2,9.88-51.2,5.36-4.09-1.54-7.29-4.6-10.73-7.31-3.07-2.43-6.31-6.63-10.24-7.32-11.39-2-21.77,6.29-32.18,6.34-32.61.15-30.3-54.67-21-80,2.25-6.11,5.24-12,4.39-21.46-1.16-12.88-6-22.23-11.22-31.21-2.76-4.73-4.85-8.32-3.9-14.63C202.67,406.28,210.59,400.38,218,399.08ZM276,462c-9.56-3.84-12.21-16-21-19-12.66-4.33-7.1,12.76-3.41,17.07,11.32,13.24,38.13,19.45,35.6,48.76-.68,7.93-5.17,12.32,1,20.48,21.08,4.45,12.54-20.78,14.63-39.5,1.25-11.22,9.9-15.33,8.29-23.89-.63-3.37-4.39-5.52-6.34-6.83C290.48,458,287.35,466.54,276,462Z"/><path class="cls-1" d="M480.33,416.64c1.65,4.21-.37,18.18-4.39,19-3,.62-6.3-3.66-7.32-4.39-2.32-1.67-4.94-3.91-7.31-4.39-5.17-1-21.16,3.21-22.43-2.44-3.44-15.32,20.56-4.36,30.23-5.85C472.77,418,475.83,414.72,480.33,416.64Z"/></svg>